<?xml version="1.0" encoding="utf-8" standalone="no"?>
<!DOCTYPE svg PUBLIC "-//W3C//DTD SVG 1.1//EN"
  "http://www.w3.org/Graphics/SVG/1.1/DTD/svg11.dtd">
<svg xmlns:xlink="http://www.w3.org/1999/xlink" width="417.876108pt" height="339.133644pt" viewBox="0 0 417.876108 339.133644" xmlns="http://www.w3.org/2000/svg" version="1.1">
 <metadata>
  <rdf:RDF xmlns:dc="http://purl.org/dc/elements/1.1/" xmlns:cc="http://creativecommons.org/ns#" xmlns:rdf="http://www.w3.org/1999/02/22-rdf-syntax-ns#">
   <cc:Work>
    <dc:type rdf:resource="http://purl.org/dc/dcmitype/StillImage"/>
    <dc:date>2023-04-08T00:33:38.603915</dc:date>
    <dc:format>image/svg+xml</dc:format>
    <dc:creator>
     <cc:Agent>
      <dc:title>Matplotlib v3.7.1, https://matplotlib.org/</dc:title>
     </cc:Agent>
    </dc:creator>
   </cc:Work>
  </rdf:RDF>
 </metadata>
 <defs>
  <style type="text/css">*{stroke-linejoin: round; stroke-linecap: butt}</style>
 </defs>
 <g id="figure_1">
  <g id="patch_1">
   <path d="M 0 339.133644 
L 417.876108 339.133644 
L 417.876108 0 
L 0 0 
L 0 339.133644 
z
" style="fill: none"/>
  </g>
  <g id="axes_1">
   <g id="patch_2">
    <path d="M 53.556108 292.595515 
L 410.676108 292.595515 
L 410.676108 26.483515 
L 53.556108 26.483515 
z
" style="fill: #ffffff"/>
   </g>
   <g id="line2d_1">
    <path d="M 69.788835 38.579515 
L 124.977386 63.848866 
L 157.260619 78.630489 
L 180.165937 89.118217 
L 197.932682 97.253131 
L 212.44917 103.89984 
L 224.722685 109.519552 
L 235.354488 114.387569 
L 244.732402 118.681463 
L 253.121233 122.522483 
L 260.709853 125.997107 
L 267.637721 129.169191 
L 274.010741 132.087226 
L 279.911236 134.788904 
L 285.404466 137.304105 
L 290.543039 139.65692 
L 295.369986 141.867049 
L 299.920953 143.950814 
L 304.225799 145.921887 
L 308.309784 147.791834 
L 312.194469 149.570526 
L 315.898404 151.266459 
L 319.437664 152.886991 
L 322.826272 154.438542 
L 326.076529 155.926748 
L 329.199292 157.356577 
L 332.204186 158.732437 
L 335.099787 160.058255 
L 337.893767 161.337543 
L 340.593017 162.573457 
L 343.20375 163.768841 
L 345.73159 164.926271 
L 348.181637 166.048081 
L 350.558537 167.1364 
L 352.866532 168.193169 
L 355.109504 169.220165 
L 357.291017 170.219021 
L 359.41435 171.191238 
L 361.482525 172.1382 
L 363.498335 173.061185 
L 365.464367 173.961378 
L 367.38302 174.839878 
L 369.256524 175.697705 
L 371.086955 176.53581 
L 372.876249 177.355079 
L 374.626215 178.156342 
L 376.338545 178.940371 
L 378.014822 179.707894 
L 379.656535 180.45959 
L 381.26508 181.196099 
L 382.84177 181.918023 
L 384.387843 182.625928 
L 385.904465 183.320348 
L 387.392737 184.001788 
L 388.8537 184.670724 
L 390.288338 185.327606 
L 391.697583 185.972861 
L 393.082318 186.606894 
L 394.443381 187.230088 
" clip-path="url(#p45eb32d3d3)" style="fill: none; stroke-dasharray: 3.7,1.6; stroke-dashoffset: 0; stroke: #262626"/>
   </g>
   <g id="PathCollection_1">
    <defs>
     <path id="m2e94450f8d" d="M 0 0.866025 
C 0.229673 0.866025 0.449969 0.774776 0.612372 0.612372 
C 0.774776 0.449969 0.866025 0.229673 0.866025 0 
C 0.866025 -0.229673 0.774776 -0.449969 0.612372 -0.612372 
C 0.449969 -0.774776 0.229673 -0.866025 0 -0.866025 
C -0.229673 -0.866025 -0.449969 -0.774776 -0.612372 -0.612372 
C -0.774776 -0.449969 -0.866025 -0.229673 -0.866025 0 
C -0.866025 0.229673 -0.774776 0.449969 -0.612372 0.612372 
C -0.449969 0.774776 -0.229673 0.866025 0 0.866025 
z
" style="stroke: #d62728"/>
    </defs>
    <g clip-path="url(#p45eb32d3d3)">
     <use xlink:href="#m2e94450f8d" x="69.788835" y="38.579515" style="fill: #d62728; stroke: #d62728"/>
     <use xlink:href="#m2e94450f8d" x="124.977386" y="63.342878" style="fill: #d62728; stroke: #d62728"/>
     <use xlink:href="#m2e94450f8d" x="157.260619" y="82.202628" style="fill: #d62728; stroke: #d62728"/>
     <use xlink:href="#m2e94450f8d" x="180.165937" y="94.295803" style="fill: #d62728; stroke: #d62728"/>
     <use xlink:href="#m2e94450f8d" x="197.932682" y="104.989294" style="fill: #d62728; stroke: #d62728"/>
     <use xlink:href="#m2e94450f8d" x="212.44917" y="110.452772" style="fill: #d62728; stroke: #d62728"/>
     <use xlink:href="#m2e94450f8d" x="224.722685" y="117.949757" style="fill: #d62728; stroke: #d62728"/>
     <use xlink:href="#m2e94450f8d" x="235.354488" y="122.957233" style="fill: #d62728; stroke: #d62728"/>
     <use xlink:href="#m2e94450f8d" x="244.732402" y="115.216" style="fill: #d62728; stroke: #d62728"/>
     <use xlink:href="#m2e94450f8d" x="253.121233" y="130.114775" style="fill: #d62728; stroke: #d62728"/>
     <use xlink:href="#m2e94450f8d" x="260.709853" y="137.661336" style="fill: #d62728; stroke: #d62728"/>
     <use xlink:href="#m2e94450f8d" x="267.637721" y="127.966039" style="fill: #d62728; stroke: #d62728"/>
     <use xlink:href="#m2e94450f8d" x="274.010741" y="131.846943" style="fill: #d62728; stroke: #d62728"/>
     <use xlink:href="#m2e94450f8d" x="279.911236" y="140.550619" style="fill: #d62728; stroke: #d62728"/>
     <use xlink:href="#m2e94450f8d" x="285.404466" y="130.138404" style="fill: #d62728; stroke: #d62728"/>
     <use xlink:href="#m2e94450f8d" x="290.543039" y="161.816544" style="fill: #d62728; stroke: #d62728"/>
     <use xlink:href="#m2e94450f8d" x="295.369986" y="140.354509" style="fill: #d62728; stroke: #d62728"/>
     <use xlink:href="#m2e94450f8d" x="299.920953" y="131.17621" style="fill: #d62728; stroke: #d62728"/>
     <use xlink:href="#m2e94450f8d" x="304.225799" y="163.800638" style="fill: #d62728; stroke: #d62728"/>
     <use xlink:href="#m2e94450f8d" x="308.309784" y="145.894504" style="fill: #d62728; stroke: #d62728"/>
     <use xlink:href="#m2e94450f8d" x="312.194469" y="155.109928" style="fill: #d62728; stroke: #d62728"/>
     <use xlink:href="#m2e94450f8d" x="315.898404" y="157.478241" style="fill: #d62728; stroke: #d62728"/>
     <use xlink:href="#m2e94450f8d" x="319.437664" y="149.945005" style="fill: #d62728; stroke: #d62728"/>
     <use xlink:href="#m2e94450f8d" x="322.826272" y="158.813117" style="fill: #d62728; stroke: #d62728"/>
     <use xlink:href="#m2e94450f8d" x="326.076529" y="176.035688" style="fill: #d62728; stroke: #d62728"/>
     <use xlink:href="#m2e94450f8d" x="329.199292" y="152.87772" style="fill: #d62728; stroke: #d62728"/>
     <use xlink:href="#m2e94450f8d" x="332.204186" y="156.573188" style="fill: #d62728; stroke: #d62728"/>
     <use xlink:href="#m2e94450f8d" x="335.099787" y="194.76597" style="fill: #d62728; stroke: #d62728"/>
     <use xlink:href="#m2e94450f8d" x="337.893767" y="168.17664" style="fill: #d62728; stroke: #d62728"/>
     <use xlink:href="#m2e94450f8d" x="340.593017" y="145.794041" style="fill: #d62728; stroke: #d62728"/>
     <use xlink:href="#m2e94450f8d" x="343.20375" y="174.17954" style="fill: #d62728; stroke: #d62728"/>
     <use xlink:href="#m2e94450f8d" x="345.73159" y="223.607778" style="fill: #d62728; stroke: #d62728"/>
     <use xlink:href="#m2e94450f8d" x="348.181637" y="204.159249" style="fill: #d62728; stroke: #d62728"/>
     <use xlink:href="#m2e94450f8d" x="350.558537" y="194.215327" style="fill: #d62728; stroke: #d62728"/>
     <use xlink:href="#m2e94450f8d" x="352.866532" y="177.348332" style="fill: #d62728; stroke: #d62728"/>
     <use xlink:href="#m2e94450f8d" x="355.109504" y="153.977113" style="fill: #d62728; stroke: #d62728"/>
     <use xlink:href="#m2e94450f8d" x="357.291017" y="192.184965" style="fill: #d62728; stroke: #d62728"/>
     <use xlink:href="#m2e94450f8d" x="359.41435" y="224.572459" style="fill: #d62728; stroke: #d62728"/>
     <use xlink:href="#m2e94450f8d" x="361.482525" y="235.999322" style="fill: #d62728; stroke: #d62728"/>
     <use xlink:href="#m2e94450f8d" x="363.498335" y="230.718954" style="fill: #d62728; stroke: #d62728"/>
     <use xlink:href="#m2e94450f8d" x="365.464367" y="181.85857" style="fill: #d62728; stroke: #d62728"/>
     <use xlink:href="#m2e94450f8d" x="367.38302" y="181.826263" style="fill: #d62728; stroke: #d62728"/>
     <use xlink:href="#m2e94450f8d" x="369.256524" y="179.005978" style="fill: #d62728; stroke: #d62728"/>
     <use xlink:href="#m2e94450f8d" x="371.086955" y="181.276346" style="fill: #d62728; stroke: #d62728"/>
     <use xlink:href="#m2e94450f8d" x="372.876249" y="169.343431" style="fill: #d62728; stroke: #d62728"/>
     <use xlink:href="#m2e94450f8d" x="374.626215" y="193.013615" style="fill: #d62728; stroke: #d62728"/>
     <use xlink:href="#m2e94450f8d" x="376.338545" y="210.402819" style="fill: #d62728; stroke: #d62728"/>
     <use xlink:href="#m2e94450f8d" x="378.014822" y="230.245413" style="fill: #d62728; stroke: #d62728"/>
     <use xlink:href="#m2e94450f8d" x="379.656535" y="245.611566" style="fill: #d62728; stroke: #d62728"/>
     <use xlink:href="#m2e94450f8d" x="381.26508" y="227.638392" style="fill: #d62728; stroke: #d62728"/>
     <use xlink:href="#m2e94450f8d" x="382.84177" y="279.214016" style="fill: #d62728; stroke: #d62728"/>
     <use xlink:href="#m2e94450f8d" x="384.387843" y="268.1537" style="fill: #d62728; stroke: #d62728"/>
     <use xlink:href="#m2e94450f8d" x="385.904465" y="233.058916" style="fill: #d62728; stroke: #d62728"/>
     <use xlink:href="#m2e94450f8d" x="387.392737" y="218.223633" style="fill: #d62728; stroke: #d62728"/>
     <use xlink:href="#m2e94450f8d" x="388.8537" y="211.451953" style="fill: #d62728; stroke: #d62728"/>
     <use xlink:href="#m2e94450f8d" x="390.288338" y="225.258609" style="fill: #d62728; stroke: #d62728"/>
     <use xlink:href="#m2e94450f8d" x="391.697583" y="250.364184" style="fill: #d62728; stroke: #d62728"/>
     <use xlink:href="#m2e94450f8d" x="393.082318" y="280.499515" style="fill: #d62728; stroke: #d62728"/>
     <use xlink:href="#m2e94450f8d" x="394.443381" y="234.937943" style="fill: #d62728; stroke: #d62728"/>
    </g>
   </g>
   <g id="matplotlib.axis_1">
    <g id="xtick_1">
     <g id="line2d_2">
      <defs>
       <path id="m4894f0a1dc" d="M 0 0 
L 0 3.5 
" style="stroke: #000000; stroke-width: 0.8"/>
      </defs>
      <g>
       <use xlink:href="#m4894f0a1dc" x="69.788835" y="292.595515" style="stroke: #000000; stroke-width: 0.8"/>
      </g>
     </g>
     <g id="text_1">
      <!-- $\mathdefault{10^{0}}$ -->
      <g transform="translate(59.195313 310.665103) scale(0.16 -0.16)">
       <defs>
        <path id="CMR17-31" d="M 1702 4083 
C 1702 4217 1696 4224 1606 4224 
C 1357 3927 979 3833 621 3820 
C 602 3820 570 3820 563 3808 
C 557 3795 557 3782 557 3648 
C 755 3648 1088 3686 1344 3839 
L 1344 467 
C 1344 243 1331 166 781 166 
L 589 166 
L 589 0 
C 896 6 1216 12 1523 12 
C 1830 12 2150 6 2458 0 
L 2458 166 
L 2266 166 
C 1715 166 1702 236 1702 467 
L 1702 4083 
z
" transform="scale(0.015625)"/>
        <path id="CMR17-30" d="M 2688 2038 
C 2688 2430 2682 3099 2413 3613 
C 2176 4063 1798 4224 1466 4224 
C 1158 4224 768 4082 525 3620 
C 269 3137 243 2539 243 2038 
C 243 1671 250 1112 448 623 
C 723 -39 1216 -128 1466 -128 
C 1760 -128 2208 -7 2470 604 
C 2662 1048 2688 1568 2688 2038 
z
M 1466 -26 
C 1056 -26 813 328 723 816 
C 653 1196 653 1749 653 2109 
C 653 2604 653 3015 736 3407 
C 858 3954 1216 4121 1466 4121 
C 1728 4121 2067 3947 2189 3420 
C 2272 3054 2278 2623 2278 2109 
C 2278 1691 2278 1176 2202 797 
C 2067 96 1690 -26 1466 -26 
z
" transform="scale(0.015625)"/>
       </defs>
       <use xlink:href="#CMR17-31" transform="scale(0.996264)"/>
       <use xlink:href="#CMR17-30" transform="translate(45.690477 0) scale(0.996264)"/>
       <use xlink:href="#CMR17-30" transform="translate(91.380954 36.153639) scale(0.697382)"/>
      </g>
     </g>
    </g>
    <g id="xtick_2">
     <g id="line2d_3">
      <g>
       <use xlink:href="#m4894f0a1dc" x="253.121233" y="292.595515" style="stroke: #000000; stroke-width: 0.8"/>
      </g>
     </g>
     <g id="text_2">
      <!-- $\mathdefault{10^{1}}$ -->
      <g transform="translate(242.527711 310.665103) scale(0.16 -0.16)">
       <use xlink:href="#CMR17-31" transform="scale(0.996264)"/>
       <use xlink:href="#CMR17-30" transform="translate(45.690477 0) scale(0.996264)"/>
       <use xlink:href="#CMR17-31" transform="translate(91.380954 36.153639) scale(0.697382)"/>
      </g>
     </g>
    </g>
    <g id="xtick_3">
     <g id="line2d_4">
      <defs>
       <path id="m6ea979dbe6" d="M 0 0 
L 0 2 
" style="stroke: #000000; stroke-width: 0.6"/>
      </defs>
      <g>
       <use xlink:href="#m6ea979dbe6" x="61.400005" y="292.595515" style="stroke: #000000; stroke-width: 0.6"/>
      </g>
     </g>
    </g>
    <g id="xtick_4">
     <g id="line2d_5">
      <g>
       <use xlink:href="#m6ea979dbe6" x="124.977386" y="292.595515" style="stroke: #000000; stroke-width: 0.6"/>
      </g>
     </g>
    </g>
    <g id="xtick_5">
     <g id="line2d_6">
      <g>
       <use xlink:href="#m6ea979dbe6" x="157.260619" y="292.595515" style="stroke: #000000; stroke-width: 0.6"/>
      </g>
     </g>
    </g>
    <g id="xtick_6">
     <g id="line2d_7">
      <g>
       <use xlink:href="#m6ea979dbe6" x="180.165937" y="292.595515" style="stroke: #000000; stroke-width: 0.6"/>
      </g>
     </g>
    </g>
    <g id="xtick_7">
     <g id="line2d_8">
      <g>
       <use xlink:href="#m6ea979dbe6" x="197.932682" y="292.595515" style="stroke: #000000; stroke-width: 0.6"/>
      </g>
     </g>
    </g>
    <g id="xtick_8">
     <g id="line2d_9">
      <g>
       <use xlink:href="#m6ea979dbe6" x="212.44917" y="292.595515" style="stroke: #000000; stroke-width: 0.6"/>
      </g>
     </g>
    </g>
    <g id="xtick_9">
     <g id="line2d_10">
      <g>
       <use xlink:href="#m6ea979dbe6" x="224.722685" y="292.595515" style="stroke: #000000; stroke-width: 0.6"/>
      </g>
     </g>
    </g>
    <g id="xtick_10">
     <g id="line2d_11">
      <g>
       <use xlink:href="#m6ea979dbe6" x="235.354488" y="292.595515" style="stroke: #000000; stroke-width: 0.6"/>
      </g>
     </g>
    </g>
    <g id="xtick_11">
     <g id="line2d_12">
      <g>
       <use xlink:href="#m6ea979dbe6" x="244.732402" y="292.595515" style="stroke: #000000; stroke-width: 0.6"/>
      </g>
     </g>
    </g>
    <g id="xtick_12">
     <g id="line2d_13">
      <g>
       <use xlink:href="#m6ea979dbe6" x="308.309784" y="292.595515" style="stroke: #000000; stroke-width: 0.6"/>
      </g>
     </g>
    </g>
    <g id="xtick_13">
     <g id="line2d_14">
      <g>
       <use xlink:href="#m6ea979dbe6" x="340.593017" y="292.595515" style="stroke: #000000; stroke-width: 0.6"/>
      </g>
     </g>
    </g>
    <g id="xtick_14">
     <g id="line2d_15">
      <g>
       <use xlink:href="#m6ea979dbe6" x="363.498335" y="292.595515" style="stroke: #000000; stroke-width: 0.6"/>
      </g>
     </g>
    </g>
    <g id="xtick_15">
     <g id="line2d_16">
      <g>
       <use xlink:href="#m6ea979dbe6" x="381.26508" y="292.595515" style="stroke: #000000; stroke-width: 0.6"/>
      </g>
     </g>
    </g>
    <g id="xtick_16">
     <g id="line2d_17">
      <g>
       <use xlink:href="#m6ea979dbe6" x="395.781568" y="292.595515" style="stroke: #000000; stroke-width: 0.6"/>
      </g>
     </g>
    </g>
    <g id="xtick_17">
     <g id="line2d_18">
      <g>
       <use xlink:href="#m6ea979dbe6" x="408.055083" y="292.595515" style="stroke: #000000; stroke-width: 0.6"/>
      </g>
     </g>
    </g>
    <g id="text_3">
     <!-- Bin size -->
     <g transform="translate(205.302117 328.834168) scale(0.16 -0.16)">
      <defs>
       <path id="CMR17-42" d="M 333 4352 
L 333 4185 
C 774 4185 845 4185 845 3897 
L 845 451 
C 845 166 774 166 333 166 
L 333 0 
L 2534 0 
C 3354 0 3885 578 3885 1155 
C 3885 1726 3360 2214 2675 2259 
C 3290 2380 3718 2790 3718 3276 
C 3718 3808 3194 4352 2368 4352 
L 333 4352 
z
M 1248 2304 
L 1248 3936 
C 1248 4153 1261 4185 1517 4185 
L 2336 4185 
C 2970 4185 3251 3673 3251 3276 
C 3251 2790 2861 2304 2170 2304 
L 1248 2304 
z
M 1517 166 
C 1261 166 1248 198 1248 413 
L 1248 2201 
L 2432 2201 
C 3091 2201 3411 1624 3411 1161 
C 3411 698 3046 166 2349 166 
L 1517 166 
z
" transform="scale(0.015625)"/>
       <path id="CMR17-69" d="M 992 3961 
C 992 4102 877 4224 730 4224 
C 589 4224 467 4108 467 3961 
C 467 3820 582 3699 730 3699 
C 870 3699 992 3814 992 3961 
z
M 243 2745 
L 243 2579 
C 602 2579 653 2540 653 2231 
L 653 443 
C 653 198 627 166 218 166 
L 218 0 
C 371 12 646 12 806 12 
C 960 12 1222 12 1370 0 
L 1370 166 
C 992 166 979 205 979 436 
L 979 2816 
L 243 2745 
z
" transform="scale(0.015625)"/>
       <path id="CMR17-6e" d="M 2656 1954 
C 2656 2282 2592 2816 1837 2816 
C 1331 2816 1069 2424 973 2166 
L 966 2166 
L 966 2816 
L 211 2745 
L 211 2578 
C 589 2578 646 2540 646 2231 
L 646 443 
C 646 198 621 166 211 166 
L 211 0 
C 365 12 646 12 813 12 
C 979 12 1267 12 1421 0 
L 1421 166 
C 1011 166 986 192 986 443 
L 986 1678 
C 986 2269 1344 2713 1792 2713 
C 2266 2713 2317 2289 2317 1980 
L 2317 443 
C 2317 198 2291 166 1882 166 
L 1882 0 
C 2035 12 2317 12 2483 12 
C 2650 12 2938 12 3091 0 
L 3091 166 
C 2682 166 2656 192 2656 443 
L 2656 1954 
z
" transform="scale(0.015625)"/>
       <path id="CMR17-73" d="M 1978 2688 
C 1978 2803 1971 2809 1933 2809 
C 1907 2809 1901 2803 1824 2707 
C 1805 2681 1747 2617 1728 2592 
C 1523 2809 1235 2816 1126 2816 
C 416 2816 160 2444 160 2073 
C 160 1497 813 1363 998 1324 
C 1402 1241 1542 1216 1677 1100 
C 1760 1024 1901 883 1901 652 
C 1901 384 1747 38 1158 38 
C 602 38 403 460 288 1024 
C 269 1113 269 1120 218 1120 
C 166 1120 160 1113 160 985 
L 160 64 
C 160 -52 166 -58 205 -58 
C 237 -58 243 -52 275 0 
C 314 57 410 211 448 275 
C 576 102 800 -64 1158 -64 
C 1792 -64 2131 281 2131 780 
C 2131 1107 1958 1280 1875 1356 
C 1683 1555 1459 1600 1190 1651 
C 838 1728 390 1817 390 2208 
C 390 2374 480 2726 1126 2726 
C 1811 2726 1850 2086 1862 1881 
C 1869 1849 1901 1843 1920 1843 
C 1978 1843 1978 1862 1978 1971 
L 1978 2688 
z
" transform="scale(0.015625)"/>
       <path id="CMR17-7a" d="M 2310 2604 
C 2362 2668 2362 2681 2362 2694 
C 2362 2752 2336 2752 2221 2752 
L 275 2752 
L 211 1760 
L 326 1760 
C 371 2380 442 2649 1178 2649 
L 1958 2649 
L 128 96 
C 128 6 134 0 269 0 
L 2291 0 
L 2381 1152 
L 2266 1152 
C 2214 441 2131 115 1350 115 
L 531 115 
L 2310 2604 
z
" transform="scale(0.015625)"/>
       <path id="CMR17-65" d="M 2438 1503 
C 2464 1529 2464 1542 2464 1606 
C 2464 2251 2118 2816 1389 2816 
C 710 2816 173 2175 173 1394 
C 173 554 781 -64 1459 -64 
C 2176 -64 2458 619 2458 755 
C 2458 800 2419 800 2406 800 
C 2362 800 2355 787 2330 709 
C 2189 270 1837 51 1504 51 
C 1229 51 954 206 781 490 
C 582 819 582 1200 582 1503 
L 2438 1503 
z
M 589 1600 
C 634 2511 1126 2713 1382 2713 
C 1818 2713 2112 2308 2118 1600 
L 589 1600 
z
" transform="scale(0.015625)"/>
      </defs>
      <use xlink:href="#CMR17-42" transform="scale(0.996264)"/>
      <use xlink:href="#CMR17-69" transform="translate(65.188754 0) scale(0.996264)"/>
      <use xlink:href="#CMR17-6e" transform="translate(90.059813 0) scale(0.996264)"/>
      <use xlink:href="#CMR17-73" transform="translate(171.031149 0) scale(0.996264)"/>
      <use xlink:href="#CMR17-69" transform="translate(206.832487 0) scale(0.996264)"/>
      <use xlink:href="#CMR17-7a" transform="translate(231.703545 0) scale(0.996264)"/>
      <use xlink:href="#CMR17-65" transform="translate(272.189206 0) scale(0.996264)"/>
     </g>
    </g>
   </g>
   <g id="matplotlib.axis_2">
    <g id="ytick_1">
     <g id="line2d_19">
      <defs>
       <path id="mab9e1bbb12" d="M 0 0 
L -3.5 0 
" style="stroke: #000000; stroke-width: 0.8"/>
      </defs>
      <g>
       <use xlink:href="#mab9e1bbb12" x="53.556108" y="197.619401" style="stroke: #000000; stroke-width: 0.8"/>
      </g>
     </g>
     <g id="text_4">
      <!-- $\mathdefault{10^{0}}$ -->
      <g transform="translate(25.369064 203.154195) scale(0.16 -0.16)">
       <use xlink:href="#CMR17-31" transform="scale(0.996264)"/>
       <use xlink:href="#CMR17-30" transform="translate(45.690477 0) scale(0.996264)"/>
       <use xlink:href="#CMR17-30" transform="translate(91.380954 36.153639) scale(0.697382)"/>
      </g>
     </g>
    </g>
    <g id="ytick_2">
     <g id="line2d_20">
      <g>
       <use xlink:href="#mab9e1bbb12" x="53.556108" y="29.733466" style="stroke: #000000; stroke-width: 0.8"/>
      </g>
     </g>
     <g id="text_5">
      <!-- $\mathdefault{10^{1}}$ -->
      <g transform="translate(25.369064 35.26826) scale(0.16 -0.16)">
       <use xlink:href="#CMR17-31" transform="scale(0.996264)"/>
       <use xlink:href="#CMR17-30" transform="translate(45.690477 0) scale(0.996264)"/>
       <use xlink:href="#CMR17-31" transform="translate(91.380954 36.153639) scale(0.697382)"/>
      </g>
     </g>
    </g>
    <g id="ytick_3">
     <g id="line2d_21">
      <defs>
       <path id="m6008907382" d="M 0 0 
L -2 0 
" style="stroke: #000000; stroke-width: 0.6"/>
      </defs>
      <g>
       <use xlink:href="#m6008907382" x="53.556108" y="285.403388" style="stroke: #000000; stroke-width: 0.6"/>
      </g>
     </g>
    </g>
    <g id="ytick_4">
     <g id="line2d_22">
      <g>
       <use xlink:href="#m6008907382" x="53.556108" y="264.427931" style="stroke: #000000; stroke-width: 0.6"/>
      </g>
     </g>
    </g>
    <g id="ytick_5">
     <g id="line2d_23">
      <g>
       <use xlink:href="#m6008907382" x="53.556108" y="248.158103" style="stroke: #000000; stroke-width: 0.6"/>
      </g>
     </g>
    </g>
    <g id="ytick_6">
     <g id="line2d_24">
      <g>
       <use xlink:href="#m6008907382" x="53.556108" y="234.864686" style="stroke: #000000; stroke-width: 0.6"/>
      </g>
     </g>
    </g>
    <g id="ytick_7">
     <g id="line2d_25">
      <g>
       <use xlink:href="#m6008907382" x="53.556108" y="223.625261" style="stroke: #000000; stroke-width: 0.6"/>
      </g>
     </g>
    </g>
    <g id="ytick_8">
     <g id="line2d_26">
      <g>
       <use xlink:href="#m6008907382" x="53.556108" y="213.889229" style="stroke: #000000; stroke-width: 0.6"/>
      </g>
     </g>
    </g>
    <g id="ytick_9">
     <g id="line2d_27">
      <g>
       <use xlink:href="#m6008907382" x="53.556108" y="205.30144" style="stroke: #000000; stroke-width: 0.6"/>
      </g>
     </g>
    </g>
    <g id="ytick_10">
     <g id="line2d_28">
      <g>
       <use xlink:href="#m6008907382" x="53.556108" y="147.080699" style="stroke: #000000; stroke-width: 0.6"/>
      </g>
     </g>
    </g>
    <g id="ytick_11">
     <g id="line2d_29">
      <g>
       <use xlink:href="#m6008907382" x="53.556108" y="117.517453" style="stroke: #000000; stroke-width: 0.6"/>
      </g>
     </g>
    </g>
    <g id="ytick_12">
     <g id="line2d_30">
      <g>
       <use xlink:href="#m6008907382" x="53.556108" y="96.541996" style="stroke: #000000; stroke-width: 0.6"/>
      </g>
     </g>
    </g>
    <g id="ytick_13">
     <g id="line2d_31">
      <g>
       <use xlink:href="#m6008907382" x="53.556108" y="80.272168" style="stroke: #000000; stroke-width: 0.6"/>
      </g>
     </g>
    </g>
    <g id="ytick_14">
     <g id="line2d_32">
      <g>
       <use xlink:href="#m6008907382" x="53.556108" y="66.978751" style="stroke: #000000; stroke-width: 0.6"/>
      </g>
     </g>
    </g>
    <g id="ytick_15">
     <g id="line2d_33">
      <g>
       <use xlink:href="#m6008907382" x="53.556108" y="55.739326" style="stroke: #000000; stroke-width: 0.6"/>
      </g>
     </g>
    </g>
    <g id="ytick_16">
     <g id="line2d_34">
      <g>
       <use xlink:href="#m6008907382" x="53.556108" y="46.003294" style="stroke: #000000; stroke-width: 0.6"/>
      </g>
     </g>
    </g>
    <g id="ytick_17">
     <g id="line2d_35">
      <g>
       <use xlink:href="#m6008907382" x="53.556108" y="37.415505" style="stroke: #000000; stroke-width: 0.6"/>
      </g>
     </g>
    </g>
    <g id="text_6">
     <!-- Binned RMS residuals -->
     <g transform="translate(18.269588 235.709589) rotate(-90) scale(0.16 -0.16)">
      <defs>
       <path id="CMR17-64" d="M 1869 4345 
L 1869 4179 
C 2246 4179 2304 4141 2304 3843 
L 2304 2371 
C 2278 2403 2016 2816 1498 2816 
C 845 2816 211 2228 211 1376 
C 211 529 806 -64 1434 -64 
C 1978 -64 2259 361 2291 406 
L 2291 -64 
L 3066 -13 
L 3066 154 
C 2688 154 2630 193 2630 503 
L 2630 4416 
L 1869 4345 
z
M 2291 762 
C 2291 568 2176 393 2029 264 
C 1811 70 1594 38 1472 38 
C 1286 38 621 135 621 1369 
C 621 2636 1363 2713 1530 2713 
C 1824 2713 2061 2545 2208 2313 
C 2291 2177 2291 2157 2291 2041 
L 2291 762 
z
" transform="scale(0.015625)"/>
       <path id="CMR17-52" d="M 2509 2156 
C 3117 2278 3629 2689 3629 3203 
C 3629 3806 2950 4352 2054 4352 
L 333 4352 
L 333 4185 
C 774 4185 845 4185 845 3896 
L 845 428 
C 845 140 774 140 333 140 
L 333 -26 
C 518 -13 851 -13 1050 -13 
C 1248 -13 1581 -13 1766 -26 
L 1766 140 
C 1325 140 1254 140 1254 428 
L 1254 2112 
L 2003 2112 
C 2368 2112 2573 1964 2662 1881 
C 2918 1632 2918 1459 2918 1024 
C 2918 595 2918 377 3110 160 
C 3354 -103 3680 -128 3821 -128 
C 4294 -128 4365 403 4365 512 
C 4365 550 4365 595 4307 595 
C 4256 595 4250 556 4250 531 
C 4218 115 4032 -26 3834 -26 
C 3482 -26 3443 377 3405 768 
C 3386 902 3373 998 3360 1139 
C 3322 1459 3270 1926 2509 2156 
z
M 1984 2214 
L 1254 2214 
L 1254 3935 
C 1254 4153 1267 4185 1523 4185 
L 1990 4185 
C 2522 4185 3142 3999 3142 3203 
C 3142 2374 2464 2214 1984 2214 
z
" transform="scale(0.015625)"/>
       <path id="CMR17-4d" d="M 1338 4249 
C 1299 4345 1293 4352 1158 4352 
L 339 4352 
L 339 4185 
C 781 4185 851 4185 851 3898 
L 851 624 
C 851 465 851 166 339 166 
L 339 0 
C 486 12 755 12 915 12 
C 1075 12 1344 12 1491 0 
L 1491 166 
C 979 166 979 465 979 624 
L 979 4159 
L 986 4159 
L 2490 102 
C 2515 38 2528 0 2579 0 
C 2630 0 2643 38 2669 102 
L 4186 4191 
L 4192 4191 
L 4192 453 
C 4192 166 4122 166 3680 166 
L 3680 0 
C 3853 12 4198 12 4384 12 
C 4570 12 4922 12 5094 0 
L 5094 166 
C 4653 166 4582 166 4582 453 
L 4582 3898 
C 4582 4185 4653 4185 5094 4185 
L 5094 4352 
L 4282 4352 
C 4147 4352 4141 4345 4102 4249 
L 2720 516 
L 1338 4249 
z
" transform="scale(0.015625)"/>
       <path id="CMR17-53" d="M 2803 4351 
C 2803 4467 2797 4473 2758 4473 
C 2720 4473 2707 4447 2682 4390 
L 2490 3965 
C 2246 4320 1875 4480 1472 4480 
C 819 4480 294 3958 294 3301 
C 294 3101 339 2817 557 2546 
C 794 2250 1018 2198 1530 2063 
C 1722 2011 2042 1927 2106 1901 
C 2470 1747 2662 1360 2662 999 
C 2662 534 2336 38 1779 38 
C 1094 38 454 425 410 1328 
C 403 1431 397 1437 352 1437 
C 301 1437 294 1431 294 1302 
L 294 0 
C 294 -116 301 -122 339 -122 
C 384 -122 397 -90 486 109 
C 493 128 493 141 614 386 
C 934 -39 1472 -128 1779 -128 
C 2477 -128 2970 457 2970 1141 
C 2970 1476 2848 1734 2778 1850 
C 2509 2263 2221 2340 1914 2417 
C 1869 2437 1856 2437 1498 2527 
C 1152 2617 1005 2662 845 2836 
C 666 3036 602 3243 602 3449 
C 602 3868 934 4326 1478 4326 
C 2157 4326 2579 3842 2675 3036 
C 2694 2920 2701 2914 2746 2914 
C 2803 2914 2803 2933 2803 3043 
L 2803 4351 
z
" transform="scale(0.015625)"/>
       <path id="CMR17-72" d="M 960 1517 
C 960 2134 1222 2713 1702 2713 
C 1747 2713 1792 2707 1837 2687 
C 1837 2687 1696 2642 1696 2475 
C 1696 2321 1818 2257 1914 2257 
C 1990 2257 2131 2302 2131 2482 
C 2131 2687 1926 2816 1709 2816 
C 1222 2816 1011 2340 947 2115 
L 941 2115 
L 941 2816 
L 198 2745 
L 198 2578 
C 576 2578 634 2540 634 2231 
L 634 443 
C 634 198 608 166 198 166 
L 198 0 
C 352 12 646 12 813 12 
C 998 12 1325 12 1498 0 
L 1498 166 
C 1037 166 960 166 960 455 
L 960 1517 
z
" transform="scale(0.015625)"/>
       <path id="CMR17-75" d="M 1882 2745 
L 1882 2579 
C 2259 2579 2317 2540 2317 2229 
L 2317 1053 
C 2317 510 2029 38 1555 38 
C 1030 38 986 355 986 691 
L 986 2816 
L 211 2745 
L 211 2579 
C 467 2579 640 2579 646 2320 
L 646 1079 
C 646 646 646 368 813 187 
C 896 103 1056 -64 1517 -64 
C 2061 -64 2272 400 2323 536 
L 2330 536 
L 2330 -64 
L 3091 -13 
L 3091 154 
C 2714 154 2656 193 2656 503 
L 2656 2816 
L 1882 2745 
z
" transform="scale(0.015625)"/>
       <path id="CMR17-61" d="M 2304 1656 
C 2304 2048 2304 2275 2035 2534 
C 1798 2751 1523 2816 1306 2816 
C 800 2816 435 2408 435 1977 
C 435 1740 627 1728 666 1728 
C 749 1728 896 1779 896 1958 
C 896 2118 774 2188 666 2188 
C 640 2188 608 2182 589 2176 
C 723 2594 1069 2713 1293 2713 
C 1613 2713 1965 2421 1965 1875 
L 1965 1632 
C 1587 1619 1133 1568 774 1373 
C 371 1147 256 822 256 576 
C 256 77 832 -64 1171 -64 
C 1523 -64 1850 135 1990 505 
C 2003 219 2182 -39 2464 -39 
C 2598 -39 2938 51 2938 563 
L 2938 926 
L 2822 926 
L 2822 557 
C 2822 161 2650 109 2566 109 
C 2304 109 2304 446 2304 732 
L 2304 1656 
z
M 1965 887 
C 1965 323 1568 38 1216 38 
C 896 38 646 278 646 576 
C 646 771 730 1114 1101 1322 
C 1408 1497 1760 1523 1965 1536 
L 1965 887 
z
" transform="scale(0.015625)"/>
       <path id="CMR17-6c" d="M 979 4416 
L 218 4345 
L 218 4179 
C 595 4179 653 4141 653 3835 
L 653 439 
C 653 198 627 166 218 166 
L 218 0 
C 371 12 653 12 813 12 
C 979 12 1261 12 1414 0 
L 1414 166 
C 1005 166 979 191 979 439 
L 979 4416 
z
" transform="scale(0.015625)"/>
      </defs>
      <use xlink:href="#CMR17-42" transform="scale(0.996264)"/>
      <use xlink:href="#CMR17-69" transform="translate(65.188754 0) scale(0.996264)"/>
      <use xlink:href="#CMR17-6e" transform="translate(90.059813 0) scale(0.996264)"/>
      <use xlink:href="#CMR17-6e" transform="translate(140.955183 0) scale(0.996264)"/>
      <use xlink:href="#CMR17-65" transform="translate(191.850552 0) scale(0.996264)"/>
      <use xlink:href="#CMR17-64" transform="translate(232.336213 0) scale(0.996264)"/>
      <use xlink:href="#CMR17-52" transform="translate(313.307549 0) scale(0.996264)"/>
      <use xlink:href="#CMR17-4d" transform="translate(381.098651 0) scale(0.996264)"/>
      <use xlink:href="#CMR17-53" transform="translate(465.785592 0) scale(0.996264)"/>
      <use xlink:href="#CMR17-72" transform="translate(546.756928 0) scale(0.996264)"/>
      <use xlink:href="#CMR17-65" transform="translate(582.037696 0) scale(0.996264)"/>
      <use xlink:href="#CMR17-73" transform="translate(622.523356 0) scale(0.996264)"/>
      <use xlink:href="#CMR17-69" transform="translate(658.324694 0) scale(0.996264)"/>
      <use xlink:href="#CMR17-64" transform="translate(683.195752 0) scale(0.996264)"/>
      <use xlink:href="#CMR17-75" transform="translate(734.091122 0) scale(0.996264)"/>
      <use xlink:href="#CMR17-61" transform="translate(784.986492 0) scale(0.996264)"/>
      <use xlink:href="#CMR17-6c" transform="translate(830.676969 0) scale(0.996264)"/>
      <use xlink:href="#CMR17-73" transform="translate(855.548027 0) scale(0.996264)"/>
     </g>
    </g>
   </g>
   <g id="patch_3">
    <path d="M 53.556108 292.595515 
L 53.556108 26.483515 
" style="fill: none; stroke: #000000; stroke-width: 0.8; stroke-linejoin: miter; stroke-linecap: square"/>
   </g>
   <g id="patch_4">
    <path d="M 410.676108 292.595515 
L 410.676108 26.483515 
" style="fill: none; stroke: #000000; stroke-width: 0.8; stroke-linejoin: miter; stroke-linecap: square"/>
   </g>
   <g id="patch_5">
    <path d="M 53.556108 292.595515 
L 410.676108 292.595515 
" style="fill: none; stroke: #000000; stroke-width: 0.8; stroke-linejoin: miter; stroke-linecap: square"/>
   </g>
   <g id="patch_6">
    <path d="M 53.556108 26.483515 
L 410.676108 26.483515 
" style="fill: none; stroke: #000000; stroke-width: 0.8; stroke-linejoin: miter; stroke-linecap: square"/>
   </g>
   <g id="text_7">
    <!-- Binned RMS residuals vs. Bin Size -->
    <g transform="translate(97.846312 20.483515) scale(0.192 -0.192)">
     <defs>
      <path id="CMR17-76" d="M 2502 2173 
C 2560 2315 2662 2572 3034 2585 
L 3034 2752 
C 2912 2745 2752 2739 2630 2739 
C 2496 2739 2285 2739 2157 2752 
L 2157 2585 
C 2317 2572 2406 2495 2406 2328 
C 2406 2270 2406 2257 2368 2167 
L 1664 379 
L 902 2308 
C 864 2392 864 2405 864 2431 
C 864 2585 1075 2585 1171 2585 
L 1171 2752 
C 1018 2739 736 2739 576 2739 
C 403 2739 205 2739 64 2752 
L 64 2585 
C 307 2585 442 2585 518 2386 
L 1446 44 
C 1485 -52 1491 -64 1549 -64 
C 1606 -64 1613 -52 1651 44 
L 2502 2173 
z
" transform="scale(0.015625)"/>
      <path id="CMR17-2e" d="M 1062 262 
C 1062 422 934 524 800 524 
C 672 524 538 422 538 262 
C 538 102 666 0 800 0 
C 928 0 1062 102 1062 262 
z
" transform="scale(0.015625)"/>
     </defs>
     <use xlink:href="#CMR17-42" transform="scale(0.996264)"/>
     <use xlink:href="#CMR17-69" transform="translate(65.188754 0) scale(0.996264)"/>
     <use xlink:href="#CMR17-6e" transform="translate(90.059813 0) scale(0.996264)"/>
     <use xlink:href="#CMR17-6e" transform="translate(140.955183 0) scale(0.996264)"/>
     <use xlink:href="#CMR17-65" transform="translate(191.850552 0) scale(0.996264)"/>
     <use xlink:href="#CMR17-64" transform="translate(232.336213 0) scale(0.996264)"/>
     <use xlink:href="#CMR17-52" transform="translate(313.307549 0) scale(0.996264)"/>
     <use xlink:href="#CMR17-4d" transform="translate(381.098651 0) scale(0.996264)"/>
     <use xlink:href="#CMR17-53" transform="translate(465.785592 0) scale(0.996264)"/>
     <use xlink:href="#CMR17-72" transform="translate(546.756928 0) scale(0.996264)"/>
     <use xlink:href="#CMR17-65" transform="translate(582.037696 0) scale(0.996264)"/>
     <use xlink:href="#CMR17-73" transform="translate(622.523356 0) scale(0.996264)"/>
     <use xlink:href="#CMR17-69" transform="translate(658.324694 0) scale(0.996264)"/>
     <use xlink:href="#CMR17-64" transform="translate(683.195752 0) scale(0.996264)"/>
     <use xlink:href="#CMR17-75" transform="translate(734.091122 0) scale(0.996264)"/>
     <use xlink:href="#CMR17-61" transform="translate(784.986492 0) scale(0.996264)"/>
     <use xlink:href="#CMR17-6c" transform="translate(830.676969 0) scale(0.996264)"/>
     <use xlink:href="#CMR17-73" transform="translate(855.548027 0) scale(0.996264)"/>
     <use xlink:href="#CMR17-76" transform="translate(921.425331 0) scale(0.996264)"/>
     <use xlink:href="#CMR17-73" transform="translate(969.718247 0) scale(0.996264)"/>
     <use xlink:href="#CMR17-2e" transform="translate(1005.519585 0) scale(0.996264)"/>
     <use xlink:href="#CMR17-42" transform="translate(1070.876304 0) scale(0.996264)"/>
     <use xlink:href="#CMR17-69" transform="translate(1136.065058 0) scale(0.996264)"/>
     <use xlink:href="#CMR17-6e" transform="translate(1160.936117 0) scale(0.996264)"/>
     <use xlink:href="#CMR17-53" transform="translate(1241.907453 0) scale(0.996264)"/>
     <use xlink:href="#CMR17-69" transform="translate(1292.802823 0) scale(0.996264)"/>
     <use xlink:href="#CMR17-7a" transform="translate(1317.673881 0) scale(0.996264)"/>
     <use xlink:href="#CMR17-65" transform="translate(1358.159541 0) scale(0.996264)"/>
    </g>
   </g>
   <g id="legend_1">
    <g id="patch_7">
     <path d="M 251.836608 86.835631 
L 399.476108 86.835631 
Q 402.676108 86.835631 402.676108 83.635631 
L 402.676108 37.683515 
Q 402.676108 34.483515 399.476108 34.483515 
L 251.836608 34.483515 
Q 248.636608 34.483515 248.636608 37.683515 
L 248.636608 83.635631 
Q 248.636608 86.835631 251.836608 86.835631 
z
" style="fill: #ffffff; opacity: 0.8; stroke: #cccccc; stroke-linejoin: miter"/>
    </g>
    <g id="PathCollection_2">
     <g>
      <use xlink:href="#m2e94450f8d" x="271.036608" y="47.883515" style="fill: #d62728; stroke: #d62728"/>
     </g>
    </g>
    <g id="text_8">
     <!-- Fit -->
     <g transform="translate(299.836608 52.083515) scale(0.16 -0.16)">
      <defs>
       <path id="CMR17-46" d="M 3482 4339 
L 326 4339 
L 326 4172 
C 768 4172 838 4172 838 3883 
L 838 450 
C 838 166 768 166 326 166 
L 326 0 
C 512 12 870 12 1069 12 
C 1331 12 1638 12 1901 0 
L 1901 166 
L 1760 166 
C 1274 166 1261 229 1261 456 
L 1261 2073 
L 1837 2073 
C 2432 2073 2490 1865 2490 1334 
L 2605 1334 
L 2605 2991 
L 2490 2991 
C 2490 2451 2432 2240 1837 2240 
L 1261 2240 
L 1261 3922 
C 1261 4140 1274 4172 1530 4172 
L 2355 4172 
C 3322 4172 3430 3774 3520 2920 
L 3635 2920 
L 3482 4339 
z
" transform="scale(0.015625)"/>
       <path id="CMR17-74" d="M 966 2585 
L 1862 2585 
L 1862 2752 
L 966 2752 
L 966 3968 
L 851 3968 
C 838 3292 614 2700 70 2687 
L 70 2585 
L 627 2585 
L 627 778 
C 627 655 627 -64 1370 -64 
C 1747 -64 1965 308 1965 784 
L 1965 1151 
L 1850 1151 
L 1850 790 
C 1850 347 1677 51 1408 51 
C 1222 51 966 179 966 765 
L 966 2585 
z
" transform="scale(0.015625)"/>
      </defs>
      <use xlink:href="#CMR17-46" transform="scale(0.996264)"/>
      <use xlink:href="#CMR17-69" transform="translate(59.983847 0) scale(0.996264)"/>
      <use xlink:href="#CMR17-74" transform="translate(84.854905 0) scale(0.996264)"/>
     </g>
    </g>
    <g id="line2d_36">
     <path d="M 255.036608 71.736155 
L 271.036608 71.736155 
L 287.036608 71.736155 
" style="fill: none; stroke-dasharray: 3.7,1.6; stroke-dashoffset: 0; stroke: #262626"/>
    </g>
    <g id="text_9">
     <!-- $N^{-1/2}$ approx. -->
     <g transform="translate(299.836608 77.336155) scale(0.16 -0.16)">
      <defs>
       <path id="CMMI12-4e" d="M 4736 3682 
C 4806 3956 4909 4147 5395 4166 
C 5414 4166 5491 4172 5491 4281 
C 5491 4352 5434 4352 5408 4352 
C 5280 4352 4954 4339 4826 4339 
L 4518 4339 
C 4429 4339 4314 4352 4224 4352 
C 4186 4352 4109 4352 4109 4230 
C 4109 4166 4160 4166 4205 4166 
C 4589 4153 4614 4007 4614 3892 
C 4614 3835 4608 3816 4589 3726 
L 3866 854 
L 2496 4243 
C 2451 4345 2445 4352 2304 4352 
L 1523 4352 
C 1395 4352 1338 4352 1338 4230 
C 1338 4166 1382 4166 1504 4166 
C 1536 4166 1914 4166 1914 4109 
C 1914 4096 1901 4045 1894 4026 
L 1043 650 
C 966 338 813 204 390 185 
C 358 185 294 179 294 64 
C 294 0 358 0 378 0 
C 506 0 832 12 960 12 
L 1267 12 
C 1357 12 1466 0 1555 0 
C 1600 0 1670 0 1670 121 
C 1670 179 1606 185 1581 185 
C 1370 191 1165 230 1165 459 
C 1165 510 1178 567 1190 618 
L 2054 4026 
C 2093 3962 2093 3949 2118 3892 
L 3642 115 
C 3674 38 3686 0 3744 0 
C 3808 0 3814 19 3840 128 
L 4736 3682 
z
" transform="scale(0.015625)"/>
       <path id="CMSY10-0" d="M 4218 1472 
C 4326 1472 4442 1472 4442 1600 
C 4442 1728 4326 1728 4218 1728 
L 755 1728 
C 646 1728 531 1728 531 1600 
C 531 1472 646 1472 755 1472 
L 4218 1472 
z
" transform="scale(0.015625)"/>
       <path id="CMMI12-3d" d="M 2746 4563 
C 2746 4569 2784 4665 2784 4678 
C 2784 4755 2720 4800 2669 4800 
C 2637 4800 2579 4800 2528 4659 
L 384 -1364 
C 384 -1370 346 -1466 346 -1479 
C 346 -1556 410 -1600 461 -1600 
C 499 -1600 557 -1594 602 -1460 
L 2746 4563 
z
" transform="scale(0.015625)"/>
       <path id="CMR17-32" d="M 2669 990 
L 2554 990 
C 2490 537 2438 460 2413 422 
C 2381 371 1920 371 1830 371 
L 602 371 
C 832 620 1280 1073 1824 1596 
C 2214 1966 2669 2400 2669 3033 
C 2669 3788 2067 4224 1395 4224 
C 691 4224 262 3603 262 3027 
C 262 2777 448 2745 525 2745 
C 589 2745 781 2783 781 3007 
C 781 3206 614 3264 525 3264 
C 486 3264 448 3257 422 3244 
C 544 3788 915 4057 1306 4057 
C 1862 4057 2227 3616 2227 3033 
C 2227 2477 1901 1998 1536 1583 
L 262 147 
L 262 0 
L 2515 0 
L 2669 990 
z
" transform="scale(0.015625)"/>
       <path id="CMR17-70" d="M 1408 -1114 
C 998 -1114 973 -1088 973 -834 
L 973 380 
C 1158 109 1427 -64 1766 -64 
C 2406 -64 3053 503 3053 1382 
C 3053 2196 2496 2816 1837 2816 
C 1453 2816 1139 2603 960 2345 
L 960 2816 
L 198 2745 
L 198 2577 
C 576 2577 634 2539 634 2228 
L 634 -834 
C 634 -1081 608 -1114 198 -1114 
L 198 -1280 
C 352 -1268 634 -1268 800 -1268 
C 966 -1268 1254 -1268 1408 -1280 
L 1408 -1114 
z
M 973 2015 
C 973 2106 973 2241 1222 2481 
C 1254 2506 1472 2700 1792 2700 
C 2259 2700 2643 2112 2643 1376 
C 2643 639 2234 38 1728 38 
C 1498 38 1248 148 1056 451 
C 973 594 973 632 973 736 
L 973 2015 
z
" transform="scale(0.015625)"/>
       <path id="CMR17-6f" d="M 2758 1356 
C 2758 2176 2163 2816 1466 2816 
C 768 2816 173 2176 173 1356 
C 173 550 768 -64 1466 -64 
C 2163 -64 2758 550 2758 1356 
z
M 1466 51 
C 1165 51 909 230 762 480 
C 602 768 582 1126 582 1408 
C 582 1676 595 2009 762 2297 
C 890 2508 1139 2713 1466 2713 
C 1754 2713 1997 2553 2150 2329 
C 2349 2028 2349 1606 2349 1408 
C 2349 1158 2336 774 2163 467 
C 1984 172 1709 51 1466 51 
z
" transform="scale(0.015625)"/>
       <path id="CMR17-78" d="M 1664 1491 
C 1856 1740 2074 2022 2253 2233 
C 2464 2476 2707 2579 2989 2585 
L 2989 2752 
C 2880 2745 2656 2739 2541 2739 
C 2368 2739 2170 2739 2022 2752 
L 2022 2585 
C 2112 2572 2163 2508 2163 2419 
C 2163 2304 2099 2233 2067 2188 
L 1594 1587 
L 1030 2323 
C 973 2393 973 2406 973 2438 
C 973 2515 1037 2579 1146 2585 
L 1146 2752 
C 992 2739 717 2739 557 2739 
C 384 2739 179 2739 38 2752 
L 38 2585 
C 384 2585 461 2560 614 2368 
L 1350 1414 
C 1363 1401 1395 1363 1395 1344 
C 1395 1318 838 633 768 544 
C 480 198 179 172 6 166 
L 6 0 
C 115 6 339 12 454 12 
C 582 12 864 12 979 0 
L 979 166 
C 941 172 838 185 838 332 
C 838 448 890 518 947 595 
L 1478 1248 
L 2035 524 
C 2086 454 2163 358 2163 313 
C 2163 224 2086 172 1984 166 
L 1984 0 
C 2138 12 2413 12 2573 12 
C 2746 12 2950 12 3091 0 
L 3091 166 
C 2771 166 2675 179 2522 377 
L 1664 1491 
z
" transform="scale(0.015625)"/>
      </defs>
      <use xlink:href="#CMMI12-4e" transform="scale(0.996264)"/>
      <use xlink:href="#CMSY10-0" transform="translate(88.521773 36.153639) scale(0.697382)"/>
      <use xlink:href="#CMR17-31" transform="translate(142.762766 36.153639) scale(0.697382)"/>
      <use xlink:href="#CMMI12-3d" transform="translate(174.745948 36.153639) scale(0.697382)"/>
      <use xlink:href="#CMR17-32" transform="translate(208.888239 36.153639) scale(0.697382)"/>
      <use xlink:href="#CMR17-61" transform="translate(271.445519 0) scale(0.996264)"/>
      <use xlink:href="#CMR17-70" transform="translate(317.135996 0) scale(0.996264)"/>
      <use xlink:href="#CMR17-70" transform="translate(368.031366 0) scale(0.996264)"/>
      <use xlink:href="#CMR17-72" transform="translate(418.926736 0) scale(0.996264)"/>
      <use xlink:href="#CMR17-6f" transform="translate(454.207504 0) scale(0.996264)"/>
      <use xlink:href="#CMR17-78" transform="translate(497.295527 0) scale(0.996264)"/>
      <use xlink:href="#CMR17-2e" transform="translate(545.588443 0) scale(0.996264)"/>
     </g>
    </g>
   </g>
  </g>
 </g>
 <defs>
  <clipPath id="p45eb32d3d3">
   <rect x="53.556108" y="26.483515" width="357.12" height="266.112"/>
  </clipPath>
 </defs>
</svg>
